<svg width="24" height="24" viewBox="0 0 24 24" fill="none" xmlns="http://www.w3.org/2000/svg">
<path d="M18.7998 9.91003C17.6698 9.91003 16.6598 10.46 16.0298 11.3C15.3998 10.46 14.3898 9.91003 13.2598 9.91003C11.3498 9.91003 9.7998 11.47 9.7998 13.39C9.7998 14.13 9.9198 14.82 10.1198 15.45C11.0998 18.56 14.1398 20.43 15.6398 20.94C15.8498 21.01 16.1998 21.01 16.4098 20.94C17.9098 20.43 20.9498 18.57 21.9298 15.45C22.1398 14.81 22.2498 14.13 22.2498 13.39C22.2598 11.47 20.7098 9.91003 18.7998 9.91003Z" fill="url(#paint0_linear_137_1572)"/>
<path d="M20.75 8.33998C20.75 8.56998 20.52 8.71998 20.3 8.65998C18.95 8.30998 17.47 8.59998 16.35 9.39998C16.13 9.55998 15.83 9.55998 15.62 9.39998C14.83 8.81998 13.87 8.49998 12.86 8.49998C10.28 8.49998 8.18 10.61 8.18 13.21C8.18 16.03 9.53 18.14 10.89 19.55C10.96 19.62 10.9 19.74 10.81 19.7C8.08 18.77 2 14.91 2 8.33998C2 5.43998 4.33 3.09998 7.21 3.09998C8.92 3.09998 10.43 3.91998 11.38 5.18998C12.34 3.91998 13.85 3.09998 15.55 3.09998C18.42 3.09998 20.75 5.43998 20.75 8.33998Z" fill="url(#paint1_linear_137_1572)"/>
<defs>
<linearGradient id="paint0_linear_137_1572" x1="16.0248" y1="9.91003" x2="16.0248" y2="20.9925" gradientUnits="userSpaceOnUse">
<stop stop-color="#049B73"/>
<stop offset="1" stop-color="#037C5C"/>
</linearGradient>
<linearGradient id="paint1_linear_137_1572" x1="11.375" y1="3.09998" x2="11.375" y2="19.7079" gradientUnits="userSpaceOnUse">
<stop stop-color="#049B73"/>
<stop offset="1" stop-color="#037C5C"/>
</linearGradient>
</defs>
</svg>
